<svg xmlns="http://www.w3.org/2000/svg" version="1.0" viewBox="0 0 100 100">
  <g transform="translate(0.000000,100.000000) scale(0.100000,-0.100000)" fill="currentColor" stroke="none">
    <path d="M386 944 c-171 -41 -308 -192 -338 -371 -51 -303 217 -573 521 -526 98 15 171 52 245 123 340 326 31 885 -428 774z m354 -276 c0 -19 -219 -203 -240 -203 -21 0 -240 184 -240 203 0 9 55 12 240 12 185 0 240 -3 240 -12z m-371 -161 c11 -14 -8 -33 -96 -100 -10 -7 -13 13 -13 93 l0 102 49 -41 c26 -22 53 -47 60 -54z m369 -57 l-3 -50 -59 47 -59 47 59 52 59 53 3 -50 c2 -27 2 -71 0 -99z m-237 -30 c13 0 37 11 54 24 l29 23 78 -60 c43 -33 78 -66 78 -74 0 -10 -46 -13 -241 -13 -209 0 -240 2 -237 15 2 8 37 42 78 74 l75 58 31 -23 c17 -13 42 -24 55 -24z"/>
  </g>
</svg>